<?xml version="1.0" standalone="no"?>
<!DOCTYPE svg PUBLIC "-//W3C//DTD SVG 20010904//EN"
 "http://www.w3.org/TR/2001/REC-SVG-20010904/DTD/svg10.dtd">
<svg version="1.0" xmlns="http://www.w3.org/2000/svg"
 width="1200.000000pt" height="518.000000pt" viewBox="0 0 1200.000000 518.000000"
 preserveAspectRatio="xMidYMid meet">

<g transform="translate(0.000000,518.000000) scale(0.100000,-0.100000)"
fill="#000000" stroke="none">
<path d="M1640 4901 c-259 -22 -477 -80 -685 -182 -138 -68 -256 -150 -383
-266 -103 -95 -130 -139 -110 -180 11 -24 26 -35 88 -63 8 -4 32 -31 52 -61
49 -71 73 -89 117 -89 24 0 31 3 22 9 -46 29 152 182 364 282 273 128 494 181
760 181 317 0 571 -63 803 -199 105 -61 232 -177 232 -212 0 -30 19 -26 86 18
83 56 96 67 153 144 41 54 51 76 51 106 0 34 -6 44 -53 84 -152 130 -396 265
-597 331 -108 35 -258 68 -392 85 -109 15 -395 21 -508 12z m112 -181 c3 -43
0 -50 -15 -50 -10 0 -16 4 -13 9 3 5 3 23 0 40 -5 22 -12 31 -26 31 -17 0 -19
-6 -16 -42 2 -32 -1 -43 -12 -46 -12 -2 -15 8 -15 47 l0 50 40 4 c22 2 43 4
47 5 3 1 8 -21 10 -48z m107 -38 c7 -2 11 12 11 42 0 34 4 46 15 46 9 0 15
-10 16 -22 1 -18 2 -19 6 -5 8 33 28 12 25 -26 -3 -28 0 -37 12 -37 12 0 16
10 16 40 0 31 4 40 18 40 14 0 16 -8 13 -51 -2 -39 -6 -49 -18 -45 -8 3 -24 6
-35 6 -11 0 -22 8 -25 20 -3 11 -10 20 -15 20 -6 0 -8 -9 -5 -20 4 -17 0 -20
-34 -20 -28 0 -39 4 -39 15 0 8 -7 15 -16 15 -10 0 -14 -6 -10 -15 3 -9 0 -15
-9 -15 -12 0 -12 5 -3 25 6 13 15 22 21 18 6 -3 7 -1 3 6 -4 6 -4 21 0 33 6
20 9 17 24 -22 9 -24 22 -46 29 -48z m-229 62 c0 -8 -5 -12 -10 -9 -6 4 -8 11
-5 16 9 14 15 11 15 -7z m404 -23 c-7 -45 11 -65 33 -36 17 24 17 40 -3 59 -8
9 -11 16 -5 16 17 0 41 -31 41 -54 0 -30 -18 -46 -52 -46 -38 0 -56 41 -33 76
22 34 26 30 19 -15z m-440 15 c-4 -10 2 -16 18 -18 17 -2 23 -9 23 -27 0 -13
-7 -26 -15 -28 -13 -4 -13 -3 0 6 13 10 13 12 0 21 -8 5 -20 10 -27 10 -6 0
-13 6 -16 13 -5 15 3 37 14 37 4 0 6 -6 3 -14z m-38 -41 c11 -49 4 -57 -21
-22 l-16 22 3 -25 c2 -21 -2 -26 -26 -28 -18 -2 -26 0 -21 7 3 6 11 9 16 6 5
-4 6 13 3 39 -7 46 -6 46 22 46 27 0 30 -4 40 -45z m676 23 c21 -34 -5 -78
-45 -78 -36 0 -44 12 -39 59 l4 43 36 -6 c19 -3 39 -11 44 -18z m-780 5 c-24
-5 -28 -38 -5 -38 6 0 15 -3 19 -7 4 -5 0 -8 -9 -8 -20 0 -23 -26 -5 -32 7 -3
3 -7 -9 -10 -19 -5 -22 0 -28 39 -8 55 -29 52 -33 -5 -2 -23 -7 -42 -11 -42
-9 0 -61 64 -61 74 0 16 31 3 42 -16 12 -23 12 -23 18 7 5 30 31 43 85 42 16
0 15 -1 -3 -4z m866 -23 c4 -12 2 -13 -9 -2 -18 16 -29 15 -29 -3 0 -8 7 -15
15 -15 8 0 12 -6 9 -14 -3 -8 -12 -12 -20 -9 -8 3 -14 -1 -14 -11 0 -10 8 -16
22 -16 12 0 19 -3 15 -6 -3 -3 -19 -3 -35 1 -29 6 -29 6 -19 51 9 40 13 45 36
42 13 -2 26 -10 29 -18z m81 -9 c8 -5 9 -11 3 -15 -5 -3 -13 -22 -16 -42 -4
-19 -12 -34 -17 -32 -12 4 -12 3 -3 58 7 42 10 45 33 31z m-1096 -38 c9 -56 9
-57 0 -60 -5 -2 -14 13 -19 34 -5 20 -15 39 -23 41 -14 5 -14 3 5 -67 l7 -23
-40 25 c-41 26 -41 26 -37 4 3 -15 1 -13 -7 6 -12 30 -29 36 -29 10 0 -15 -2
-16 -10 -3 -7 11 -3 18 16 28 22 11 28 10 56 -10 29 -20 31 -21 24 -2 -13 33
-12 37 14 45 14 4 28 7 31 8 4 1 9 -16 12 -36z m291 22 c3 -8 1 -15 -4 -15 -6
0 -10 7 -10 15 0 8 2 15 4 15 2 0 6 -7 10 -15z m898 -65 c1 -28 2 -50 1 -50
-15 0 -31 15 -27 25 3 7 1 16 -5 20 -6 3 -14 0 -17 -8 -3 -9 -14 -12 -30 -9
-18 3 -22 7 -13 12 7 5 18 6 24 4 7 -3 15 2 19 11 3 9 11 13 16 10 6 -4 10 -3
9 2 -3 18 1 33 10 33 5 0 11 -23 13 -50z m-1377 10 c-7 -12 22 -70 35 -70 10
0 14 13 11 40 -1 11 1 10 10 -3 14 -23 -4 -47 -36 -47 -16 0 -26 10 -37 39
-15 37 -15 40 1 44 9 3 17 5 19 6 2 0 0 -3 -3 -9z m1508 -14 c22 -20 25 -29
18 -48 -9 -26 -29 -32 -75 -24 l-33 6 21 45 c12 24 26 44 32 45 6 0 23 -11 37
-24z m107 -52 c0 -2 -9 0 -19 5 -22 12 -37 -9 -18 -28 6 -6 7 -14 3 -18 -4 -4
-11 -2 -15 6 -6 10 -10 9 -14 -4 -5 -11 1 -19 16 -24 17 -7 26 -4 39 12 10 12
18 28 18 35 0 6 3 12 6 12 9 0 73 -39 104 -63 23 -18 23 -19 3 -13 -24 8 -43
-12 -23 -24 9 -5 9 -9 1 -14 -6 -4 -11 -2 -11 5 0 8 -4 8 -15 -1 -17 -14 -11
-24 21 -34 16 -5 25 1 39 28 22 41 41 34 48 -17 4 -29 5 -30 12 -10 4 13 11
20 16 17 9 -5 -40 -74 -53 -74 -5 0 -8 19 -8 43 -1 39 -2 40 -15 23 -8 -10
-16 -23 -18 -29 -1 -5 -22 3 -45 18 -24 16 -39 31 -34 34 12 9 42 54 42 65 0
5 -3 6 -7 3 -3 -4 -12 1 -19 11 -12 15 -15 15 -23 2 -11 -16 -4 -33 10 -25 5
3 6 -1 3 -10 -5 -12 -9 -13 -20 -4 -13 11 -19 2 -15 -23 0 -4 -23 4 -52 18
l-53 26 20 43 c20 43 21 43 48 29 15 -8 28 -17 28 -20z m-1689 16 c30 -16 26
-67 -7 -82 -46 -21 -87 29 -58 71 17 23 35 26 65 11z m174 0 c3 -5 1 -10 -4
-10 -6 0 -11 5 -11 10 0 6 2 10 4 10 3 0 8 -4 11 -10z m-268 -47 c3 -10 15
-28 26 -40 l20 -23 -21 0 c-12 0 -22 5 -22 10 0 6 -5 10 -10 10 -7 0 -7 -6 -1
-19 8 -14 7 -20 -3 -24 -8 -3 -19 8 -29 28 -12 26 -21 32 -36 28 -12 -3 -21
-7 -21 -10 0 -13 36 -63 45 -63 10 0 -15 -20 -25 -20 -3 0 -14 16 -24 35 -11
19 -22 35 -26 35 -16 0 -18 -44 -3 -66 14 -22 14 -24 0 -24 -9 0 -28 5 -42 10
-23 9 -26 8 -21 -5 8 -22 -11 -9 -25 17 -11 20 -9 21 30 15 46 -6 47 -5 26 17
-13 13 -7 20 58 59 81 51 95 54 104 30z m-249 -136 c-11 -9 -14 -18 -7 -28 7
-12 10 -12 18 0 7 11 10 11 17 0 4 -7 3 -14 -4 -17 -6 -2 -9 -9 -6 -17 7 -18
31 -8 37 16 4 13 10 17 23 12 16 -6 15 -8 -6 -22 -14 -9 -44 -31 -67 -48 -24
-18 -52 -33 -63 -33 -24 0 -49 35 -43 61 7 24 39 44 48 29 3 -5 -1 -10 -9 -10
-24 0 -29 -19 -12 -45 20 -30 46 -32 53 -5 3 11 9 17 14 14 18 -11 9 15 -15
42 l-23 28 21 18 c11 9 26 17 31 17 6 0 2 -5 -7 -12z m2299 -22 c1 -16 1 -16
-3 -2 -3 9 -12 17 -20 17 -17 0 -17 -5 -3 -31 7 -15 7 -24 -1 -34 -8 -10 -8
-14 2 -17 7 -3 8 -7 2 -10 -5 -4 -21 2 -34 13 -17 13 -19 17 -6 13 16 -6 17
-3 11 24 -3 17 -3 36 0 42 11 18 50 7 52 -15z m25 -94 c-17 -37 -21 -40 -32
-26 -11 13 -11 18 -2 24 7 4 10 14 7 23 -4 9 3 18 17 25 30 14 32 5 10 -46z"/>
<path d="M1510 4721 c0 -6 5 -13 10 -16 6 -3 10 1 10 9 0 9 -4 16 -10 16 -5 0
-10 -4 -10 -9z"/>
<path d="M2174 4695 c-7 -40 -4 -48 19 -40 19 8 27 37 15 59 -14 26 -27 19
-34 -19z"/>
<path d="M2580 4580 c-7 -17 -10 -34 -6 -37 12 -13 41 14 41 37 0 35 -21 35
-35 0z"/>
<path d="M987 4558 c-5 -16 20 -68 34 -68 16 0 22 30 11 56 -12 26 -37 32 -45
12z"/>
<path d="M910 4510 c0 -5 5 -10 10 -10 6 0 10 5 10 10 0 6 -4 10 -10 10 -5 0
-10 -4 -10 -10z"/>
<path d="M5248 4889 c-204 -20 -413 -77 -581 -160 -387 -190 -625 -498 -718
-929 -31 -142 -34 -497 -6 -629 61 -282 174 -495 355 -669 319 -308 843 -438
1436 -356 184 25 339 69 344 97 2 9 -15 115 -37 236 -23 120 -41 221 -41 224
0 4 -17 0 -39 -8 -21 -7 -87 -24 -147 -37 -95 -20 -137 -23 -324 -23 -195 0
-223 2 -300 23 -302 84 -498 277 -578 570 -23 88 -26 114 -26 277 -1 213 17
304 89 450 103 213 280 351 530 416 79 21 112 24 275 23 199 0 300 -15 452
-68 40 -14 73 -24 74 -23 2 1 33 107 70 236 55 192 65 234 53 242 -8 5 -48 20
-90 34 -205 69 -530 99 -791 74z"/>
<path d="M6445 4618 c-4 -128 -5 -537 -3 -908 4 -636 6 -680 25 -770 106 -487
385 -753 860 -821 130 -18 465 -6 576 20 443 106 701 389 788 863 19 105 21
172 31 966 5 470 8 855 6 857 -2 1 -143 5 -314 9 l-311 7 -7 -808 c-4 -450
-11 -850 -17 -903 -27 -240 -115 -406 -256 -483 -133 -72 -350 -75 -485 -6
-118 60 -212 206 -251 388 -23 110 -24 167 -19 1201 l3 615 -309 3 -310 3 -7
-233z"/>
<path d="M9590 4829 c-127 -9 -381 -37 -387 -43 -3 -3 -23 -2034 -23 -2403 0
-212 1 -232 18 -237 36 -11 375 -36 582 -42 730 -22 1266 139 1551 467 234
267 339 598 326 1022 -7 240 -38 380 -123 550 -185 374 -541 597 -1074 673
-137 19 -675 27 -870 13z m635 -459 c374 -37 615 -207 721 -510 73 -211 66
-526 -17 -754 -78 -213 -227 -371 -429 -452 -153 -62 -360 -91 -567 -79 l-124
7 7 882 c3 484 9 884 13 888 8 9 151 25 236 26 33 1 105 -3 160 -8z"/>
<path d="M3110 4205 c-90 -91 -144 -122 -231 -132 -27 -3 -49 -9 -49 -14 0
-15 73 -22 167 -15 85 6 98 4 128 -14 32 -20 85 -106 85 -139 0 -12 3 -12 12
-3 14 14 18 146 6 198 l-7 31 67 8 c37 5 89 8 115 8 46 0 48 1 43 23 -13 52
-26 71 -53 82 -23 9 -183 52 -195 52 -2 0 -41 -38 -88 -85z"/>
<path d="M336 4224 c-27 -9 -60 -23 -74 -32 -22 -14 -52 -66 -52 -90 0 -5 52
-13 114 -17 l115 -7 -6 -83 c-6 -87 2 -155 17 -155 6 0 10 7 10 15 0 27 38 92
70 119 29 24 39 26 121 26 133 0 182 33 64 42 -76 7 -82 11 -126 83 -18 29
-44 59 -58 65 -14 7 -43 20 -63 31 -44 22 -66 23 -132 3z"/>
<path d="M2746 4201 l-39 -17 59 -42 c86 -61 136 -55 95 12 -18 28 -62 68 -73
65 -2 0 -21 -8 -42 -18z"/>
<path d="M2000 4175 c0 -11 64 -14 75 -3 3 3 -12 8 -34 10 -24 2 -41 -1 -41
-7z"/>
<path d="M806 4146 c-45 -42 -47 -66 -6 -66 29 0 140 48 140 60 0 8 -67 40
-85 40 -7 0 -30 -15 -49 -34z"/>
<path d="M1250 4139 c0 -5 5 -7 10 -4 6 3 10 8 10 11 0 2 -4 4 -10 4 -5 0 -10
-5 -10 -11z"/>
<path d="M2295 4140 c3 -5 8 -10 11 -10 2 0 4 5 4 10 0 6 -5 10 -11 10 -5 0
-7 -4 -4 -10z"/>
<path d="M1205 4119 c-16 -10 -25 -19 -19 -19 7 0 22 9 35 20 30 24 23 24 -16
-1z"/>
<path d="M2002 4128 c6 -18 38 -23 52 -7 8 9 8 10 -1 5 -7 -4 -22 -2 -34 5
-17 9 -20 8 -17 -3z"/>
<path d="M2270 4132 c0 -4 12 -19 27 -33 20 -18 23 -19 13 -4 -24 32 -40 47
-40 37z"/>
<path d="M2445 4129 c3 -8 15 -19 28 -24 12 -6 22 -15 22 -22 0 -6 3 -14 7
-18 3 -4 5 1 4 11 -2 10 -17 29 -35 42 -18 14 -29 19 -26 11z"/>
<path d="M1551 4106 c12 -10 79 -16 79 -6 0 5 -19 10 -42 10 -23 0 -39 -2 -37
-4z"/>
<path d="M1173 4075 c0 -8 4 -12 9 -9 5 3 6 10 3 15 -9 13 -12 11 -12 -6z"/>
<path d="M2025 4080 l-40 -7 43 -2 c23 0 42 4 42 9 0 6 -1 9 -2 9 -2 -1 -21
-5 -43 -9z"/>
<path d="M1140 4069 c0 -5 5 -7 10 -4 6 3 10 8 10 11 0 2 -4 4 -10 4 -5 0 -10
-5 -10 -11z"/>
<path d="M1560 4059 c-13 -9 -13 -10 0 -6 8 2 26 0 39 -5 21 -7 22 -7 11 7
-15 18 -29 19 -50 4z"/>
<path d="M2340 4053 c0 -6 8 -17 18 -24 16 -13 16 -13 2 6 -8 11 -16 22 -17
24 -2 2 -3 0 -3 -6z"/>
<path d="M2023 4015 c-7 -16 -7 -25 -1 -25 5 0 12 9 15 19 3 11 12 22 22 24
12 4 11 5 -4 6 -12 0 -25 -9 -32 -24z"/>
<path d="M980 4020 c19 -13 30 -13 30 0 0 6 -10 10 -22 10 -19 0 -20 -2 -8
-10z"/>
<path d="M915 4010 c-16 -7 -17 -9 -3 -9 9 -1 20 4 23 9 7 11 7 11 -20 0z"/>
<path d="M1540 4008 c0 -5 11 -9 25 -9 14 -1 30 -2 37 -3 6 -1 13 4 15 9 2 6
-15 10 -37 10 -22 0 -40 -3 -40 -7z"/>
<path d="M2581 4003 c7 -12 15 -20 18 -17 3 2 -3 12 -13 22 -17 16 -18 16 -5
-5z"/>
<path d="M2700 4015 c0 -8 29 -12 39 -5 9 5 4 8 -13 8 -14 0 -26 -2 -26 -3z"/>
<path d="M977 3997 c-3 -8 1 -14 9 -14 16 0 19 13 5 21 -5 3 -11 0 -14 -7z"/>
<path d="M1085 3991 c-3 -5 -2 -12 3 -15 5 -3 9 1 9 9 0 17 -3 19 -12 6z"/>
<path d="M1286 3981 c-4 -5 -17 -8 -31 -7 -13 2 -22 -1 -19 -5 7 -12 41 -6 56
9 7 7 9 12 6 12 -4 0 -9 -4 -12 -9z"/>
<path d="M2387 3980 c15 -16 50 -23 57 -12 3 5 -5 8 -17 7 -12 -1 -29 3 -37 8
-12 9 -13 9 -3 -3z"/>
<path d="M2023 3973 c-26 -10 -12 -19 23 -15 25 3 32 7 23 13 -15 10 -27 10
-46 2z"/>
<path d="M2686 3967 c3 -10 9 -15 12 -12 3 3 0 11 -7 18 -10 9 -11 8 -5 -6z"/>
<path d="M1209 3968 c0 -2 -2 -13 -3 -25 -2 -19 0 -21 12 -11 9 8 10 14 3 16
-6 2 -9 8 -5 13 3 5 3 9 0 9 -3 0 -6 -1 -7 -2z"/>
<path d="M811 3927 l-25 -32 32 29 c33 31 37 36 25 35 -5 0 -19 -14 -32 -32z"/>
<path d="M1547 3933 c-20 -14 -35 -28 -33 -30 6 -6 86 40 86 50 0 12 -13 7
-53 -20z"/>
<path d="M2850 3935 c13 -14 26 -25 28 -25 3 0 -5 11 -18 25 -13 14 -26 25
-28 25 -3 0 5 -11 18 -25z"/>
<path d="M1239 3933 c-13 -16 -12 -17 4 -4 9 7 17 15 17 17 0 8 -8 3 -21 -13z"/>
<path d="M2420 3946 c0 -2 8 -10 18 -17 15 -13 16 -12 3 4 -13 16 -21 21 -21
13z"/>
<path d="M2700 3931 c0 -6 4 -13 10 -16 6 -3 7 1 4 9 -7 18 -14 21 -14 7z"/>
<path d="M1050 3920 c0 -5 5 -10 10 -10 6 0 10 5 10 10 0 6 -4 10 -10 10 -5 0
-10 -4 -10 -10z"/>
<path d="M2617 3923 c-4 -3 -7 -11 -7 -17 0 -6 5 -5 12 2 6 6 9 14 7 17 -3 3
-9 2 -12 -2z"/>
<path d="M1260 3906 c0 -2 9 -6 20 -9 11 -3 18 -1 14 4 -5 9 -34 13 -34 5z"/>
<path d="M2400 3899 c0 -5 5 -7 10 -4 6 3 10 8 10 11 0 2 -4 4 -10 4 -5 0 -10
-5 -10 -11z"/>
<path d="M2058 3882 c-40 -24 -34 -35 7 -15 19 9 35 20 35 25 0 11 -11 9 -42
-10z"/>
<path d="M2437 3889 c7 -7 15 -10 18 -7 3 3 -2 9 -12 12 -14 6 -15 5 -6 -5z"/>
<path d="M2634 3878 c-4 -7 -4 -10 1 -6 4 4 14 0 22 -10 13 -15 13 -15 3 6
-12 25 -16 27 -26 10z"/>
<path d="M770 3860 c-6 -12 -9 -24 -7 -27 3 -2 11 5 17 17 6 12 9 24 7 27 -3
2 -11 -5 -17 -17z"/>
<path d="M1016 3865 c-11 -8 -18 -17 -15 -19 2 -2 15 4 28 15 27 22 15 26 -13
4z"/>
<path d="M2721 3869 c-1 -8 6 -24 15 -35 15 -19 15 -19 6 1 -5 11 -12 27 -15
35 -5 13 -6 13 -6 -1z"/>
<path d="M2890 3879 c0 -3 9 -23 20 -45 12 -22 18 -28 14 -14 -6 23 -34 71
-34 59z"/>
<path d="M1110 3864 c0 -7 27 -34 34 -34 11 0 -6 29 -20 34 -8 3 -14 3 -14 0z"/>
<path d="M1190 3859 c0 -5 5 -7 10 -4 6 3 10 8 10 11 0 2 -4 4 -10 4 -5 0 -10
-5 -10 -11z"/>
<path d="M1262 3854 c-7 -8 -8 -14 -3 -14 10 0 25 19 20 25 -2 1 -10 -3 -17
-11z"/>
<path d="M2498 3863 c6 -2 18 -2 25 0 6 3 1 5 -13 5 -14 0 -19 -2 -12 -5z"/>
<path d="M2550 3860 c-9 -6 -10 -10 -3 -10 6 0 15 5 18 10 8 12 4 12 -15 0z"/>
<path d="M933 3820 c-7 -18 -17 -29 -22 -25 -7 3 -8 0 -5 -9 3 -9 8 -16 10
-16 7 0 35 62 32 71 -2 5 -9 -4 -15 -21z"/>
<path d="M1480 3832 c0 -10 60 -36 67 -29 2 3 -9 13 -26 21 -34 18 -41 19 -41
8z"/>
<path d="M2129 3828 c-6 -11 -3 -98 3 -98 4 0 8 23 8 50 0 42 -4 60 -11 48z"/>
<path d="M2492 3800 c-12 -12 -22 -24 -22 -27 0 -4 11 4 25 17 23 22 29 30 22
30 -2 0 -13 -9 -25 -20z"/>
<path d="M2740 3802 c0 -5 10 -17 22 -28 l21 -19 -18 28 c-18 28 -25 33 -25
19z"/>
<path d="M1200 3780 c0 -6 7 -10 15 -10 8 0 15 2 15 4 0 2 -7 6 -15 10 -8 3
-15 1 -15 -4z"/>
<path d="M1442 3755 c2 -13 12 -21 28 -22 14 -1 18 0 10 3 -8 4 -21 14 -28 23
-13 14 -13 14 -10 -4z"/>
<path d="M2438 3763 c7 -3 16 -2 19 1 4 3 -2 6 -13 5 -11 0 -14 -3 -6 -6z"/>
<path d="M891 3737 c-13 -21 -12 -21 5 -5 10 10 16 20 13 22 -3 3 -11 -5 -18
-17z"/>
<path d="M947 3743 c5 -12 3 -14 -7 -8 -9 5 -11 4 -6 -4 4 -6 12 -9 17 -6 12
8 12 35 -1 35 -5 0 -6 -7 -3 -17z"/>
<path d="M2190 3733 c-8 -16 -16 -31 -18 -35 -2 -5 0 -8 5 -8 10 1 43 70 33
70 -3 0 -13 -12 -20 -27z"/>
<path d="M2720 3749 c0 -5 5 -7 10 -4 6 3 10 8 10 11 0 2 -4 4 -10 4 -5 0 -10
-5 -10 -11z"/>
<path d="M776 3737 c3 -10 9 -15 12 -12 3 3 0 11 -7 18 -10 9 -11 8 -5 -6z"/>
<path d="M1417 3715 c19 -25 33 -32 33 -16 0 13 -29 41 -41 41 -6 0 -2 -11 8
-25z"/>
<path d="M2240 3723 c0 -9 -8 -25 -17 -36 -17 -19 -17 -20 5 -8 14 7 22 21 22
36 0 14 -2 25 -5 25 -3 0 -5 -8 -5 -17z"/>
<path d="M2750 3720 c6 -11 13 -20 16 -20 2 0 0 9 -6 20 -6 11 -13 20 -16 20
-2 0 0 -9 6 -20z"/>
<path d="M2273 3685 c-6 -19 -8 -35 -3 -35 4 0 10 8 13 18 2 9 8 25 12 35 4 9
3 17 -2 17 -5 0 -14 -16 -20 -35z"/>
<path d="M1360 3703 c0 -15 26 -46 36 -42 5 2 -1 15 -13 28 -13 13 -23 20 -23
14z"/>
<path d="M2630 3700 c-9 -6 -10 -10 -3 -10 6 0 15 5 18 10 8 12 4 12 -15 0z"/>
<path d="M2846 3692 c-2 -4 4 -8 14 -8 10 0 16 4 14 8 -3 4 -9 8 -14 8 -5 0
-11 -4 -14 -8z"/>
<path d="M770 3680 c-13 -9 -13 -10 0 -10 8 0 22 5 30 10 13 9 13 10 0 10 -8
0 -22 -5 -30 -10z"/>
<path d="M1080 3680 c8 -5 22 -9 30 -9 10 0 8 3 -5 9 -27 12 -43 12 -25 0z"/>
<path d="M1331 3669 c11 -11 18 -27 15 -35 -3 -9 -1 -12 4 -9 17 10 11 44 -9
55 -30 15 -33 12 -10 -11z"/>
<path d="M2562 3679 c-21 -6 -30 -14 -26 -21 6 -9 9 -9 12 0 2 7 11 12 20 12
10 0 24 5 32 10 18 12 6 11 -38 -1z"/>
<path d="M2770 3680 c-8 -5 -10 -10 -5 -11 6 0 18 -2 28 -4 15 -3 16 -1 6 11
-14 16 -10 16 -29 4z"/>
<path d="M608 3658 c-13 -13 -16 -17 -7 -10 10 8 22 11 27 8 5 -3 9 1 9 9 0
19 -2 19 -29 -7z"/>
<path d="M874 3668 c-3 -4 5 -5 17 -3 30 6 36 14 9 12 -12 -1 -24 -5 -26 -9z"/>
<path d="M1277 3674 c-3 -5 3 -24 12 -43 10 -19 20 -30 23 -25 6 12 -28 79
-35 68z"/>
<path d="M652 3645 c0 -16 2 -22 5 -12 2 9 2 23 0 30 -3 6 -5 -1 -5 -18z"/>
<path d="M1130 3659 c0 -5 5 -7 10 -4 6 3 10 8 10 11 0 2 -4 4 -10 4 -5 0 -10
-5 -10 -11z"/>
<path d="M810 3650 c-8 -5 -10 -10 -5 -10 6 0 17 5 25 10 8 5 11 10 5 10 -5 0
-17 -5 -25 -10z"/>
<path d="M3070 3656 c0 -2 8 -10 18 -17 15 -13 16 -12 3 4 -13 16 -21 21 -21
13z"/>
<path d="M2931 3629 c-1 -9 9 -24 22 -35 22 -19 22 -19 6 1 -9 11 -19 27 -22
35 -5 13 -6 13 -6 -1z"/>
<path d="M551 3603 c-10 -26 -10 -27 4 -9 8 11 15 23 15 28 0 15 -7 8 -19 -19z"/>
<path d="M737 3616 c-4 -10 -1 -13 8 -9 8 3 12 9 9 14 -7 12 -11 11 -17 -5z"/>
<path d="M3120 3600 c6 -11 13 -20 16 -20 2 0 0 9 -6 20 -6 11 -13 20 -16 20
-2 0 0 -9 6 -20z"/>
<path d="M516 3534 c-4 -14 -5 -28 -3 -31 3 -2 8 8 11 23 4 14 5 28 3 31 -3 2
-8 -8 -11 -23z"/>
<path d="M3153 3528 c1 -15 6 -23 11 -18 4 4 4 16 -2 26 -9 16 -10 14 -9 -8z"/>
<path d="M915 3409 c4 -10 2 -20 -4 -24 -6 -3 -11 -11 -11 -18 0 -6 7 -1 16
12 13 17 14 25 5 34 -9 9 -11 8 -6 -4z"/>
<path d="M661 3384 c-6 -15 -9 -29 -7 -32 3 -2 10 8 16 23 14 36 7 43 -9 9z"/>
<path d="M848 3403 c6 -2 18 -2 25 0 6 3 1 5 -13 5 -14 0 -19 -2 -12 -5z"/>
<path d="M2813 3403 c9 -2 23 -2 30 0 6 3 -1 5 -18 5 -16 0 -22 -2 -12 -5z"/>
<path d="M2776 3385 c-9 -26 -7 -32 5 -12 6 10 9 21 6 23 -2 3 -7 -2 -11 -11z"/>
<path d="M883 3356 c3 -7 0 -20 -6 -27 -10 -11 -9 -11 5 0 15 11 15 41 1 41
-3 0 -3 -6 0 -14z"/>
<path d="M2963 3343 c1 -17 4 -19 14 -11 15 12 18 22 4 14 -5 -4 -11 0 -14 6
-3 7 -4 3 -4 -9z"/>
<path d="M695 3340 c7 -11 -29 -63 -37 -55 -3 3 -13 -4 -23 -15 -18 -20 -18
-20 23 -20 22 0 43 4 46 8 2 4 -11 6 -31 4 -25 -3 -34 -1 -29 7 4 6 11 9 16 6
4 -3 15 7 24 20 9 14 22 23 27 19 7 -4 7 1 0 15 -7 11 -14 21 -17 21 -3 0 -2
-5 1 -10z"/>
<path d="M2992 3315 c2 -11 -2 -19 -8 -18 -6 1 -10 -8 -9 -20 1 -18 9 -23 38
-25 36 -3 49 9 25 24 -7 5 -9 2 -4 -7 4 -8 0 -5 -10 6 -14 17 -16 17 -11 3 4
-10 2 -18 -3 -18 -15 0 -22 20 -11 33 6 8 7 18 0 27 -8 12 -9 11 -7 -5z"/>
<path d="M3060 3316 c14 -18 13 -19 -4 -13 -16 6 -17 5 -6 -8 21 -25 47 -36
47 -20 0 8 -7 11 -15 7 -11 -4 -14 -1 -9 11 3 9 -1 21 -11 29 -16 12 -16 11
-2 -6z"/>
<path d="M603 3296 c0 -22 1 -23 18 -8 23 20 24 23 2 15 -11 -4 -14 -3 -9 5 4
7 3 12 -2 12 -5 0 -9 -11 -9 -24z"/>
<path d="M2820 3311 c0 -5 7 -12 16 -15 14 -5 15 -4 4 9 -14 17 -20 19 -20 6z"/>
<path d="M835 3300 c-3 -6 1 -7 9 -4 18 7 21 14 7 14 -6 0 -13 -4 -16 -10z"/>
<path d="M567 3289 c7 -7 15 -10 18 -7 3 3 -2 9 -12 12 -14 6 -15 5 -6 -5z"/>
<path d="M788 3283 c7 -3 16 -2 19 1 4 3 -2 6 -13 5 -11 0 -14 -3 -6 -6z"/>
<path d="M2868 3283 c6 -2 18 -2 25 0 6 3 1 5 -13 5 -14 0 -19 -2 -12 -5z"/>
<path d="M536 3258 c3 -4 12 -8 20 -8 8 0 14 4 14 8 0 4 -9 8 -19 8 -11 0 -17
-4 -15 -8z"/>
<path d="M3118 3253 c7 -3 16 -2 19 1 4 3 -2 6 -13 5 -11 0 -14 -3 -6 -6z"/>
<path d="M560 3216 c0 -2 7 -6 15 -10 8 -3 15 -1 15 4 0 6 -7 10 -15 10 -8 0
-15 -2 -15 -4z"/>
<path d="M3098 3213 c7 -3 16 -2 19 1 4 3 -2 6 -13 5 -11 0 -14 -3 -6 -6z"/>
<path d="M2930 3091 c0 -6 4 -13 10 -16 6 -3 7 1 4 9 -7 18 -14 21 -14 7z"/>
<path d="M630 3066 c0 -2 7 -7 16 -10 8 -3 12 -2 9 4 -6 10 -25 14 -25 6z"/>
<path d="M610 3050 c0 -5 5 -10 11 -10 5 0 7 5 4 10 -3 6 -8 10 -11 10 -2 0
-4 -4 -4 -10z"/>
<path d="M3321 3034 c0 -11 3 -14 6 -6 3 7 2 16 -1 19 -3 4 -6 -2 -5 -13z"/>
<path d="M730 3021 c0 -6 4 -13 10 -16 6 -3 7 1 4 9 -7 18 -14 21 -14 7z"/>
<path d="M2936 3013 c-6 -14 -5 -15 5 -6 7 7 10 15 7 18 -3 3 -9 -2 -12 -12z"/>
<path d="M3160 2962 c-25 -8 -39 -17 -32 -20 15 -5 80 16 87 29 8 11 1 10 -55
-9z"/>
<path d="M2998 2956 c-10 -7 -15 -16 -12 -19 4 -3 13 1 21 9 20 19 13 26 -9
10z"/>
<path d="M553 2936 c3 -7 0 -19 -6 -26 -9 -10 -9 -11 3 -8 18 5 26 48 10 48
-7 0 -10 -6 -7 -14z"/>
<path d="M3105 2903 c11 -3 26 -10 34 -17 11 -9 13 -8 9 4 -2 8 -18 16 -34 17
-18 1 -22 0 -9 -4z"/>
<path d="M415 2890 c-3 -5 -1 -10 4 -10 6 0 11 5 11 10 0 6 -2 10 -4 10 -3 0
-8 -4 -11 -10z"/>
<path d="M602 2865 c-19 -42 -14 -53 8 -17 22 36 24 42 12 42 -5 0 -14 -11
-20 -25z"/>
<path d="M434 2869 c-3 -6 -2 -15 4 -21 6 -6 12 -6 17 3 6 8 4 10 -5 4 -10 -6
-12 -4 -7 8 7 19 2 23 -9 6z"/>
<path d="M3080 2858 c0 -9 7 -19 16 -22 25 -10 27 -1 4 19 -17 15 -20 16 -20
3z"/>
<path d="M635 2820 c-16 -17 -25 -30 -21 -30 15 0 66 49 58 54 -5 3 -22 -8
-37 -24z"/>
<path d="M475 2810 c3 -5 8 -10 11 -10 2 0 4 5 4 10 0 6 -5 10 -11 10 -5 0 -7
-4 -4 -10z"/>
<path d="M3052 2813 c-12 -3 -20 -8 -17 -13 3 -6 16 -5 30 0 15 6 26 5 29 -1
2 -5 3 -4 2 3 -3 14 -13 17 -44 11z"/>
<path d="M667 2793 c-2 -10 -8 -26 -12 -35 -4 -10 -3 -18 3 -18 5 0 12 8 15
18 2 9 8 25 12 35 4 9 3 17 -3 17 -5 0 -12 -8 -15 -17z"/>
<path d="M3325 2791 c-3 -5 -1 -12 5 -16 5 -3 10 1 10 9 0 18 -6 21 -15 7z"/>
<path d="M492 2765 c0 -16 2 -22 5 -12 2 9 2 23 0 30 -3 6 -5 -1 -5 -18z"/>
<path d="M371 2753 c7 -12 15 -20 18 -17 3 2 -3 12 -13 22 -17 16 -18 16 -5
-5z"/>
<path d="M3295 2759 c-11 -17 1 -21 15 -4 8 9 8 15 2 15 -6 0 -14 -5 -17 -11z"/>
<path d="M2966 2745 c3 -6 10 -12 17 -12 7 0 20 -4 30 -8 9 -4 17 -3 17 2 0 5
-15 14 -34 20 -26 8 -33 8 -30 -2z"/>
<path d="M3351 2744 c0 -11 3 -14 6 -6 3 7 2 16 -1 19 -3 4 -6 -2 -5 -13z"/>
<path d="M707 2732 c-25 -16 -36 -32 -19 -32 10 1 56 40 51 45 -2 2 -17 -4
-32 -13z"/>
<path d="M400 2731 c0 -6 4 -13 10 -16 6 -3 7 1 4 9 -7 18 -14 21 -14 7z"/>
<path d="M3245 2710 c-3 -6 1 -7 9 -4 18 7 21 14 7 14 -6 0 -13 -4 -16 -10z"/>
<path d="M312 2685 c0 -16 2 -22 5 -12 2 9 2 23 0 30 -3 6 -5 -1 -5 -18z"/>
<path d="M440 2690 c6 -11 15 -20 20 -20 6 0 2 9 -7 20 -10 11 -19 20 -21 20
-1 0 2 -9 8 -20z"/>
<path d="M748 2664 c-2 -25 0 -48 4 -50 5 -3 8 4 8 14 0 11 3 34 6 51 4 18 2
31 -4 31 -5 0 -12 -21 -14 -46z"/>
<path d="M3362 2690 c0 -14 2 -19 5 -12 2 6 2 18 0 25 -3 6 -5 1 -5 -13z"/>
<path d="M2910 2670 c-25 -3 -40 -7 -35 -10 6 -3 30 -3 55 0 25 3 41 7 35 10
-5 3 -30 3 -55 0z"/>
<path d="M3172 2647 c-22 -23 -22 -24 -2 -22 11 1 23 5 27 10 5 4 2 5 -4 1
-16 -9 -17 6 -1 22 7 7 10 12 7 12 -3 0 -15 -11 -27 -23z"/>
<path d="M484 2638 c-4 -6 -3 -8 4 -4 6 3 18 -1 26 -10 9 -8 16 -12 16 -7 0
11 -21 33 -31 33 -4 0 -11 -5 -15 -12z"/>
<path d="M2840 2633 c0 -14 47 -56 53 -46 2 4 -9 18 -24 31 -16 13 -29 19 -29
15z"/>
<path d="M3094 2629 c-3 -6 -1 -15 5 -20 6 -5 9 -6 6 -3 -3 4 0 13 6 21 8 9 8
13 1 13 -6 0 -14 -5 -18 -11z"/>
<path d="M800 2600 c-12 -16 -17 -30 -11 -30 5 0 13 5 16 10 4 6 9 8 13 6 4
-2 8 7 8 20 2 31 0 30 -26 -6z"/>
<path d="M346 2594 c3 -30 11 -41 22 -29 4 4 2 10 -5 12 -7 2 -10 10 -7 18 3
7 1 16 -4 19 -5 3 -8 -6 -6 -20z"/>
<path d="M578 2605 c5 -11 12 -27 15 -35 5 -13 6 -13 6 1 1 8 -6 24 -15 35
-15 19 -15 19 -6 -1z"/>
<path d="M3324 2609 c-3 -6 -2 -15 3 -20 5 -5 9 -1 9 11 0 23 -2 24 -12 9z"/>
<path d="M3136 2593 c-6 -14 -5 -15 5 -6 7 7 10 15 7 18 -3 3 -9 -2 -12 -12z"/>
<path d="M538 2575 c5 -29 8 -31 15 -11 3 8 0 19 -7 25 -10 9 -12 6 -8 -14z"/>
<path d="M2814 2555 c17 -13 34 -21 39 -18 5 3 -5 14 -22 24 -43 26 -52 23
-17 -6z"/>
<path d="M680 2561 c0 -6 4 -13 10 -16 6 -3 7 1 4 9 -7 18 -14 21 -14 7z"/>
<path d="M381 2533 c7 -12 15 -20 18 -17 3 2 -3 12 -13 22 -17 16 -18 16 -5
-5z"/>
<path d="M2995 2541 c-9 -15 15 -25 28 -12 9 9 7 10 -7 5 -13 -5 -17 -4 -12 4
4 7 5 12 2 12 -3 0 -7 -4 -11 -9z"/>
<path d="M3293 2538 c-15 -20 -25 -38 -20 -38 3 0 12 11 21 25 17 26 16 35 -1
13z"/>
<path d="M645 2500 c-3 -5 -15 -10 -26 -10 -12 0 -19 -7 -18 -17 0 -11 3 -13
6 -5 2 6 10 12 18 12 7 0 18 7 25 15 7 8 10 15 7 15 -3 0 -9 -4 -12 -10z"/>
<path d="M3029 2497 c7 -10 19 -17 26 -17 8 0 16 -6 18 -12 4 -10 6 -10 6 -1
1 7 -14 20 -31 29 -30 16 -32 16 -19 1z"/>
<path d="M3240 2485 c-11 -13 -10 -14 4 -9 9 3 16 10 16 15 0 13 -6 11 -20 -6z"/>
<path d="M424 2482 c8 -13 66 -56 66 -49 0 3 -17 17 -37 33 -20 15 -33 23 -29
16z"/>
<path d="M3199 2443 c-13 -17 -13 -17 6 -3 11 8 22 16 24 17 2 2 0 3 -6 3 -6
0 -17 -8 -24 -17z"/>
<path d="M505 2430 c1 -8 10 -16 21 -17 17 -2 17 -1 1 3 -17 5 -17 7 -2 18 15
11 14 12 -3 12 -12 0 -19 -6 -17 -16z"/>
<path d="M3157 2429 c-17 -19 -17 -20 -1 -17 9 1 18 11 20 21 3 22 2 21 -19
-4z"/>
<path d="M871 2386 c-8 -10 -9 -16 -1 -21 5 -3 13 1 16 10 9 22 -1 29 -15 11z"/>
<path d="M600 2385 c0 -5 5 -17 10 -25 5 -8 10 -10 10 -5 0 6 -5 17 -10 25 -5
8 -10 11 -10 5z"/>
<path d="M3062 2385 c4 -4 3 -14 -3 -22 -7 -8 -8 -13 -1 -13 15 0 23 28 9 36
-7 4 -9 4 -5 -1z"/>
<path d="M463 2334 c-8 -22 5 -30 23 -12 14 14 14 16 -1 21 -9 4 -18 1 -22 -9z"/>
<path d="M3184 2335 c-18 -14 -18 -14 4 -8 12 3 22 9 22 14 0 12 -3 11 -26 -6z"/>
<path d="M911 2324 c0 -11 3 -14 6 -6 3 7 2 16 -1 19 -3 4 -6 -2 -5 -13z"/>
<path d="M2826 2323 c-6 -14 -5 -15 5 -6 7 7 10 15 7 18 -3 3 -9 -2 -12 -12z"/>
<path d="M3109 2283 c-1 -5 -1 -12 0 -17 1 -5 -4 -6 -12 -3 -7 3 -14 -1 -14
-9 0 -19 30 -1 33 20 1 9 0 16 -2 16 -2 0 -5 -3 -5 -7z"/>
<path d="M2871 2278 c2 -2 18 -14 34 -28 l30 -25 -24 28 c-14 15 -29 27 -34
27 -6 0 -8 -1 -6 -2z"/>
<path d="M461 2254 c0 -11 3 -14 6 -6 3 7 2 16 -1 19 -3 4 -6 -2 -5 -13z"/>
<path d="M582 2262 c-9 -6 -5 -12 14 -21 15 -6 29 -9 32 -6 3 3 0 5 -7 5 -7 0
-9 4 -6 10 4 6 -1 7 -11 3 -12 -4 -15 -3 -10 5 8 14 6 15 -12 4z"/>
<path d="M3211 2254 c0 -11 3 -14 6 -6 3 7 2 16 -1 19 -3 4 -6 -2 -5 -13z"/>
<path d="M3030 2235 c-8 -9 -8 -15 0 -20 6 -4 9 -1 8 7 -2 8 4 12 15 10 21 -3
23 4 3 11 -8 3 -20 0 -26 -8z"/>
<path d="M640 2237 c0 -2 15 -14 33 -27 20 -15 27 -17 18 -6 -13 16 -51 41
-51 33z"/>
<path d="M905 2208 c4 -11 2 -18 -5 -18 -6 0 -8 -5 -4 -11 5 -8 10 -6 16 6 7
11 6 21 -2 28 -8 9 -10 8 -5 -5z"/>
<path d="M2990 2205 c-7 -9 -8 -15 -2 -15 5 0 12 7 16 15 3 8 4 15 2 15 -2 0
-9 -7 -16 -15z"/>
<path d="M2820 2195 c0 -5 5 -17 10 -25 5 -8 10 -10 10 -5 0 6 -5 17 -10 25
-5 8 -10 11 -10 5z"/>
<path d="M2911 2177 c-13 -21 -12 -21 5 -5 10 10 16 20 13 22 -3 3 -11 -5 -18
-17z"/>
<path d="M480 2170 c0 -5 5 -10 11 -10 5 0 7 5 4 10 -3 6 -8 10 -11 10 -2 0
-4 -4 -4 -10z"/>
<path d="M786 2152 c-2 -4 -1 -14 4 -22 7 -11 9 -9 7 8 -1 24 -3 26 -11 14z"/>
<path d="M3170 2152 c0 -6 -8 -9 -17 -6 -15 5 -16 4 -3 -5 16 -11 40 3 27 16
-4 3 -7 1 -7 -5z"/>
<path d="M521 2137 c-8 -11 -5 -19 12 -36 18 -16 24 -18 24 -6 0 8 -3 13 -5
10 -3 -3 -11 0 -19 6 -10 9 -10 15 -2 25 6 8 9 14 6 14 -2 0 -10 -6 -16 -13z"/>
<path d="M2916 2123 c-6 -14 -5 -15 5 -6 7 7 10 15 7 18 -3 3 -9 -2 -12 -12z"/>
<path d="M3137 2119 c7 -7 15 -10 18 -7 3 3 -2 9 -12 12 -14 6 -15 5 -6 -5z"/>
<path d="M841 2087 c-13 -21 -12 -21 5 -5 10 10 16 20 13 22 -3 3 -11 -5 -18
-17z"/>
<path d="M2590 2075 c-7 -9 -11 -17 -9 -20 3 -2 10 5 17 15 14 24 10 26 -8 5z"/>
<path d="M580 2057 c0 -3 12 -12 26 -22 15 -9 23 -12 20 -6 -7 11 -46 35 -46
28z"/>
<path d="M3060 2040 c-8 -5 -12 -12 -9 -15 4 -3 12 1 19 10 14 17 11 19 -10 5z"/>
<path d="M1110 2028 c0 -6 3 -9 6 -5 4 3 15 -4 26 -16 l19 -22 -17 28 c-17 28
-34 36 -34 15z"/>
<path d="M2536 2016 c-12 -19 -13 -27 -3 -32 6 -4 9 -3 4 1 -4 5 0 17 10 27 9
10 14 20 11 23 -3 3 -13 -6 -22 -19z"/>
<path d="M656 2005 c10 -8 23 -15 28 -15 6 0 1 7 -10 15 -10 8 -23 15 -28 15
-6 0 -1 -7 10 -15z"/>
<path d="M2980 1989 l-25 -20 33 16 c17 8 32 18 32 20 0 10 -16 4 -40 -16z"/>
<path d="M821 1972 c-1 -8 -6 -10 -13 -6 -13 7 8 -14 50 -50 29 -25 28 -13 -2
17 -12 13 -26 30 -29 38 -4 10 -6 10 -6 1z"/>
<path d="M1160 1955 c0 -5 5 -17 10 -25 5 -8 10 -10 10 -5 0 6 -5 17 -10 25
-5 8 -10 11 -10 5z"/>
<path d="M2822 1935 c-7 -8 -9 -15 -4 -15 5 0 15 7 22 15 16 19 -1 19 -18 0z"/>
<path d="M1010 1900 c-11 -22 -16 -40 -12 -40 5 0 16 18 25 40 8 22 14 40 11
40 -2 0 -13 -18 -24 -40z"/>
<path d="M2666 1875 c4 -8 11 -15 16 -15 6 0 5 6 -2 15 -7 8 -14 15 -16 15 -2
0 -1 -7 2 -15z"/>
<path d="M2996 1865 c4 -8 8 -15 10 -15 2 0 4 7 4 15 0 8 -4 15 -10 15 -5 0
-7 -7 -4 -15z"/>
<path d="M2502 1840 c0 -19 2 -27 5 -17 2 9 2 25 0 35 -3 9 -5 1 -5 -18z"/>
<path d="M1400 1836 c0 -7 7 -13 15 -13 8 0 15 4 15 8 0 4 -7 9 -15 13 -9 3
-15 0 -15 -8z"/>
<path d="M2261 1837 c-8 -10 -7 -14 4 -14 8 0 15 6 15 14 0 7 -2 13 -4 13 -2
0 -9 -6 -15 -13z"/>
<path d="M2685 1840 c-3 -5 -1 -10 4 -10 6 0 11 5 11 10 0 6 -2 10 -4 10 -3 0
-8 -4 -11 -10z"/>
<path d="M2948 1843 c7 -3 16 -2 19 1 4 3 -2 6 -13 5 -11 0 -14 -3 -6 -6z"/>
<path d="M1440 1836 c0 -2 8 -10 18 -17 15 -13 16 -12 3 4 -13 16 -21 21 -21
13z"/>
<path d="M1719 1831 c9 -6 12 -18 8 -32 -6 -23 -5 -23 8 -5 15 20 5 46 -19 46
-6 0 -5 -4 3 -9z"/>
<path d="M1798 1794 c2 -24 8 -41 13 -38 13 8 11 60 -4 72 -9 8 -11 1 -9 -34z"/>
<path d="M1869 1828 c7 -10 11 -31 9 -47 -2 -17 -1 -28 4 -25 15 9 8 61 -9 75
-16 13 -17 12 -4 -3z"/>
<path d="M1767 1823 c-11 -10 -8 -61 3 -68 6 -4 10 10 10 34 0 42 -2 46 -13
34z"/>
<path d="M1836 1807 c-5 -22 6 -67 17 -67 3 0 -3 69 -7 85 -1 5 -6 -3 -10 -18z"/>
<path d="M1908 1825 c-10 -10 10 -45 25 -45 9 0 9 2 1 8 -7 4 -13 15 -15 25
-2 11 -7 16 -11 12z"/>
<path d="M1950 1803 c0 -17 -8 -39 -17 -49 -13 -13 -14 -16 -3 -12 24 7 43 55
31 75 -9 15 -10 13 -11 -14z"/>
<path d="M680 1815 c0 -5 5 -17 10 -25 5 -8 10 -10 10 -5 0 6 -5 17 -10 25 -5
8 -10 11 -10 5z"/>
<path d="M2207 1809 c7 -7 15 -10 18 -7 3 3 -2 9 -12 12 -14 6 -15 5 -6 -5z"/>
<path d="M1412 1790 c0 -14 2 -19 5 -12 2 6 2 18 0 25 -3 6 -5 1 -5 -13z"/>
<path d="M1066 1787 c3 -10 9 -15 12 -12 3 3 0 11 -7 18 -10 9 -11 8 -5 -6z"/>
<path d="M2517 1793 c-4 -3 -7 -11 -7 -17 0 -6 5 -5 12 2 6 6 9 14 7 17 -3 3
-9 2 -12 -2z"/>
<path d="M2675 1790 c-3 -5 -2 -10 4 -10 5 0 13 5 16 10 3 6 2 10 -4 10 -5 0
-13 -4 -16 -10z"/>
<path d="M2240 1786 c0 -2 7 -9 15 -16 9 -7 15 -8 15 -2 0 5 -7 12 -15 16 -8
3 -15 4 -15 2z"/>
<path d="M2972 1770 c-18 -29 -15 -38 4 -12 9 13 14 25 12 27 -2 2 -9 -5 -16
-15z"/>
<path d="M1030 1767 c0 -4 9 -16 20 -27 11 -11 20 -16 20 -12 0 5 -9 17 -20
27 -11 10 -20 15 -20 12z"/>
<path d="M2634 1762 c-6 -4 -14 -16 -18 -27 -6 -18 -5 -17 14 3 22 23 24 37 4
24z"/>
<path d="M1148 1745 c-3 -11 -9 -29 -13 -40 -3 -11 1 -7 10 8 9 16 15 33 12
40 -2 6 -6 3 -9 -8z"/>
<path d="M1693 1748 c-2 -5 10 -8 26 -8 17 0 31 4 31 9 0 11 -50 9 -57 -1z"/>
<path d="M2557 1721 c-24 -42 -21 -52 4 -13 12 18 20 35 17 37 -2 2 -12 -9
-21 -24z"/>
<path d="M1086 1683 c-6 -14 -5 -15 5 -6 7 7 10 15 7 18 -3 3 -9 -2 -12 -12z"/>
<path d="M2583 1688 c4 -10 2 -18 -4 -18 -6 0 -7 -5 -3 -11 5 -8 10 -6 16 6 7
12 6 21 -2 28 -10 9 -12 8 -7 -5z"/>
<path d="M842 1651 c-11 -7 -10 -10 3 -15 9 -3 24 -1 33 4 14 9 12 10 -7 4
-16 -4 -21 -3 -17 5 8 13 6 14 -12 2z"/>
<path d="M1192 1604 c15 -15 30 -26 33 -23 2 3 -10 16 -28 29 l-32 23 27 -29z"/>
<path d="M2489 1613 c-13 -17 -13 -17 4 -4 16 13 20 13 29 0 8 -12 9 -12 6 0
-6 22 -23 24 -39 4z"/>
<path d="M978 1593 c7 -3 16 -2 19 1 4 3 -2 6 -13 5 -11 0 -14 -3 -6 -6z"/>
<path d="M1596 1583 c-6 -14 -5 -15 5 -6 7 7 10 15 7 18 -3 3 -9 -2 -12 -12z"/>
<path d="M1440 1580 c-12 -8 -9 -10 13 -10 16 0 26 4 22 10 -8 12 -16 12 -35
0z"/>
<path d="M2435 1580 c-3 -5 -1 -10 4 -10 6 0 11 5 11 10 0 6 -2 10 -4 10 -3 0
-8 -4 -11 -10z"/>
<path d="M2083 1565 c0 -8 4 -12 9 -9 5 3 6 10 3 15 -9 13 -12 11 -12 -6z"/>
<path d="M2135 1571 c-9 -15 13 -23 32 -11 15 9 14 10 -6 4 -16 -4 -21 -3 -17
5 4 6 5 11 2 11 -3 0 -7 -4 -11 -9z"/>
<path d="M2105 1550 c-3 -5 -1 -10 4 -10 6 0 11 5 11 10 0 6 -2 10 -4 10 -3 0
-8 -4 -11 -10z"/>
<path d="M2238 1538 c6 -6 18 -8 28 -6 14 3 12 5 -9 10 -19 3 -25 2 -19 -4z"/>
<path d="M1420 1536 c0 -2 7 -7 16 -10 8 -3 12 -2 9 4 -6 10 -25 14 -25 6z"/>
<path d="M1480 1530 c8 -5 20 -10 25 -10 6 0 3 5 -5 10 -8 5 -19 10 -25 10 -5
0 -3 -5 5 -10z"/>
<path d="M2165 1525 c-16 -7 -41 -26 -55 -42 l-25 -28 26 23 c14 12 29 19 34
15 4 -5 5 -3 2 4 -5 7 4 14 23 18 16 4 32 11 35 16 8 12 -3 10 -40 -6z"/>
<path d="M2081 1507 c-13 -21 -12 -21 5 -5 10 10 16 20 13 22 -3 3 -11 -5 -18
-17z"/>
<path d="M1580 1516 c0 -2 8 -10 18 -17 15 -13 16 -12 3 4 -13 16 -21 21 -21
13z"/>
<path d="M1534 1498 c-4 -7 -3 -10 1 -5 5 4 18 -1 29 -10 21 -18 21 -18 2 5
-22 26 -23 26 -32 10z"/>
<path d="M1660 1450 c0 -5 5 -10 11 -10 5 0 7 5 4 10 -3 6 -8 10 -11 10 -2 0
-4 -4 -4 -10z"/>
<path d="M2000 1450 c-12 -8 -11 -10 5 -10 17 0 17 -2 5 -10 -13 -8 -12 -10 3
-10 18 0 21 8 9 27 -5 8 -13 9 -22 3z"/>
<path d="M1580 1429 c0 -5 5 -7 10 -4 6 3 10 8 10 11 0 2 -4 4 -10 4 -5 0 -10
-5 -10 -11z"/>
<path d="M1700 1430 c8 -5 22 -9 30 -9 10 0 8 3 -5 9 -27 12 -43 12 -25 0z"/>
<path d="M1150 1426 c0 -2 7 -9 15 -16 13 -11 14 -10 9 4 -5 14 -24 23 -24 12z"/>
<path d="M2495 1410 c-4 -6 -10 -8 -14 -6 -4 3 -8 -1 -8 -9 0 -12 4 -12 21 2
12 10 23 19 25 20 2 2 -1 3 -7 3 -6 0 -14 -5 -17 -10z"/>
<path d="M1605 1400 c-3 -5 -1 -10 4 -10 6 0 11 5 11 10 0 6 -2 10 -4 10 -3 0
-8 -4 -11 -10z"/>
<path d="M2060 1400 c0 -5 5 -10 11 -10 5 0 7 5 4 10 -3 6 -8 10 -11 10 -2 0
-4 -4 -4 -10z"/>
<path d="M1225 1370 c3 -5 8 -10 11 -10 2 0 4 5 4 10 0 6 -5 10 -11 10 -5 0
-7 -4 -4 -10z"/>
<path d="M2435 1370 c-3 -5 -2 -10 4 -10 5 0 13 5 16 10 3 6 2 10 -4 10 -5 0
-13 -4 -16 -10z"/>
<path d="M1318 1343 c7 -3 16 -2 19 1 4 3 -2 6 -13 5 -11 0 -14 -3 -6 -6z"/>
<path d="M1801 1245 c-32 -77 -63 -100 -148 -109 -82 -8 -103 -21 -137 -82
-30 -53 -31 -57 -13 -51 6 2 17 -4 22 -15 10 -16 14 -13 48 31 35 45 87 81
118 81 28 0 100 44 113 69 13 25 32 131 24 131 -2 0 -15 -25 -27 -55z"/>
<path d="M2600 1294 c0 -3 5 -14 11 -26 17 -31 2 -66 -53 -125 -155 -163 -412
-241 -753 -230 -322 10 -559 87 -712 230 -69 65 -78 82 -64 121 10 24 9 26
-20 26 -69 0 -159 -75 -179 -149 -21 -78 7 -193 61 -252 52 -57 148 -124 244
-170 186 -90 363 -128 637 -136 466 -15 809 81 994 278 63 67 88 135 82 219
-6 79 -38 127 -114 167 -57 30 -134 57 -134 47z m-338 -508 c14 -24 24 -47 21
-50 -12 -12 -33 -6 -33 9 0 8 -7 15 -15 15 -8 0 -15 -9 -15 -20 0 -11 -4 -20
-8 -20 -4 0 -3 25 2 55 6 30 13 55 16 55 3 0 17 -20 32 -44z m-677 18 c0 -19
-65 -85 -81 -82 -12 2 -7 13 21 45 l35 42 -27 4 c-17 3 -13 4 12 3 22 0 40 -6
40 -12z m595 11 c0 -3 -9 -24 -21 -47 -17 -33 -18 -42 -7 -49 9 -6 2 -9 -20
-9 l-32 0 25 50 c18 35 21 50 12 50 -7 0 -18 -5 -25 -12 -9 -9 -12 -8 -12 5 0
13 9 17 40 17 22 0 40 -2 40 -5z m-517 -52 c9 -31 20 -49 32 -51 15 -3 17 3
13 43 l-3 46 35 -3 c33 -3 35 -5 32 -36 -1 -18 2 -41 7 -50 8 -15 11 -14 19 8
6 14 15 39 22 55 l12 30 18 -45 c23 -56 24 -70 5 -70 -8 0 -15 9 -15 20 0 11
-7 20 -15 20 -8 0 -15 -6 -15 -14 0 -8 -7 -17 -16 -20 -19 -7 -44 10 -44 30 0
8 -5 14 -11 14 -6 0 -9 -9 -6 -20 5 -18 0 -20 -43 -20 -43 0 -48 2 -43 20 4
14 0 20 -11 20 -9 0 -16 -7 -16 -15 0 -8 -8 -15 -17 -15 -11 0 -14 3 -8 8 6 4
19 26 29 50 11 23 20 42 22 42 2 0 10 -21 17 -47z m411 31 c21 -20 20 -53 -1
-76 -46 -51 -117 24 -73 77 16 20 54 19 74 -1z m-153 -3 c-10 -6 -12 -21 -8
-50 5 -42 0 -50 -21 -29 -27 27 -8 88 28 88 12 0 13 -2 1 -9z m49 5 c0 -11
-19 -15 -25 -6 -3 5 1 10 9 10 9 0 16 -2 16 -4z m220 -61 c0 -8 -4 -15 -10
-15 -5 0 -7 7 -4 15 4 8 8 15 10 15 2 0 4 -7 4 -15z m-212 -12 c-5 -26 -34
-28 -34 -3 0 13 7 20 19 20 12 0 17 -6 15 -17z m-401 -9 c-3 -3 -12 -4 -19 -1
-8 3 -5 6 6 6 11 1 17 -2 13 -5z"/>
<path d="M1730 775 c0 -8 5 -15 10 -15 6 0 10 7 10 15 0 8 -4 15 -10 15 -5 0
-10 -7 -10 -15z"/>
<path d="M2015 777 c-8 -29 11 -70 28 -64 7 2 12 21 12 43 0 47 -30 62 -40 21z"/>
<path d="M1056 1274 c-33 -33 -7 -94 41 -94 42 0 71 68 41 98 -17 17 -64 15
-82 -4z"/>
<path d="M1851 1254 c-1 -47 15 -101 37 -127 8 -9 47 -26 85 -38 56 -17 79
-30 119 -70 45 -45 50 -48 55 -29 4 15 11 19 25 14 18 -5 17 -2 -6 35 -14 22
-26 45 -26 51 0 17 -53 37 -129 48 -87 13 -112 32 -140 106 l-20 51 0 -41z"/>
<path d="M2505 1266 c-32 -48 22 -104 73 -77 29 16 37 48 18 76 -22 34 -70 34
-91 1z"/>
</g>
</svg>
