<?xml version="1.0" encoding="UTF-8"?>
<svg width="1161.7" height="763.28" version="1.1" viewBox="0 0 1161.7 763.28" xmlns="http://www.w3.org/2000/svg">
 <path d="m944.09 548.14c1.528-0.79 2.766-1.845 3.714-3.163 0.948-1.314 1.648-2.854 2.106-4.629 0.46-1.771 0.69-3.607 0.69-5.499 0-1.285-0.107-2.659-0.322-4.13a14.318 14.318 0 0 0-1.237-4.125 8.988 8.988 0 0 0-2.522-3.205c-1.069-0.855-2.429-1.285-4.079-1.285-1.772 0-3.21 0.563-4.309 1.697-1.101 1.128-2.019 2.612-2.751 4.444-0.733 1.836-1.376 3.913-1.927 6.234a164.53 164.53 0 0 1-1.833 7.062 61.332 61.332 0 0 1-2.246 7.15c-0.885 2.326-2.03 4.402-3.438 6.234-1.406 1.836-3.163 3.316-5.272 4.448-2.109 1.129-4.659 1.694-7.654 1.694-3.362 0-6.28-0.717-8.757-2.151a19.52 19.52 0 0 1-6.187-5.642c-1.652-2.321-2.872-4.948-3.668-7.885-0.793-2.933-1.193-5.864-1.193-8.801 0-3.423 0.384-6.706 1.147-9.855 0.765-3.145 2.003-5.943 3.714-8.39a18.832 18.832 0 0 1 6.555-5.822c2.659-1.434 5.882-2.155 9.672-2.155v13.939c-1.956 0.12-3.577 0.536-4.86 1.234-1.283 0.704-2.291 1.638-3.025 2.798-0.733 1.161-1.251 2.493-1.558 3.987-0.306 1.499-0.458 3.135-0.458 4.907 0 1.161 0.123 2.321 0.365 3.482a9.287 9.287 0 0 0 1.283 3.163 7.95 7.95 0 0 0 2.294 2.34c0.916 0.612 2.079 0.916 3.483 0.916 1.283 0 2.324-0.245 3.117-0.735 0.796-0.486 1.528-1.447 2.201-2.886 0.673-1.433 1.346-3.422 2.017-5.961 0.672-2.534 1.528-5.85 2.566-9.948 0.245-1.221 0.689-2.918 1.33-5.087 0.643-2.169 1.667-4.324 3.073-6.461 1.406-2.141 3.286-3.991 5.638-5.55 2.353-1.558 5.362-2.335 9.029-2.335 2.997 0 5.777 0.578 8.343 1.739 2.569 1.166 4.784 2.89 6.648 5.179 1.867 2.294 3.316 5.139 4.354 8.529 1.041 3.394 1.559 7.321 1.559 11.784 0 3.606-0.444 7.103-1.33 10.493-0.883 3.394-2.275 6.392-4.171 8.985-1.894 2.6-4.308 4.662-7.243 6.189-2.934 1.53-6.417 2.265-10.451 2.201v-13.935c2.201 0 4.065-0.397 5.593-1.193m-49.324-97.456h12.101v34.565h14.028v-31.725h11.185v31.725h16.043v-35.3h12.103v49.692h-65.46zm45.792-53.234c1.937 0.774 3.647 1.803 5.091 3.131 2.689 2.473 4.033 5.915 4.033 10.312 0 3.243-0.625 5.994-1.878 8.251-1.253 2.266-2.918 4.098-4.997 5.503-2.078 1.407-4.416 2.429-7.014 3.072a33.31 33.31 0 0 1-8.023 0.961c-2.872 0-5.651-0.319-8.343-0.961-2.689-0.643-5.087-1.665-7.196-3.072-2.109-1.405-3.79-3.237-5.043-5.503-1.251-2.257-1.88-5.008-1.88-8.251 0-1.77 0.291-3.467 0.871-5.087a14.848 14.848 0 0 1 2.431-4.356c0.756-0.932 1.632-1.712 2.565-2.421v-15.188a23.957 23.957 0 0 0-4.491 1.931c-2.935 1.652-5.395 3.746-7.381 6.281-1.984 2.539-3.499 5.411-4.537 8.621-1.041 3.209-1.561 6.617-1.561 10.219 0 5.014 0.888 9.523 2.66 13.524 1.773 4.005 4.216 7.381 7.334 10.132 3.117 2.752 6.77 4.861 10.956 6.327 4.187 1.466 8.726 2.201 13.615 2.201 4.768 0 9.215-0.735 13.34-2.201s7.717-3.575 10.773-6.327c3.057-2.751 5.455-6.127 7.196-10.132 1.744-4.001 2.613-8.51 2.613-13.524 0-4.032-0.611-7.732-1.833-11.094-1.222-3.358-2.992-6.294-5.317-8.801-2.321-2.502-5.135-4.523-8.435-6.049-1.736-0.803-3.591-1.436-5.549-1.919zm-660.3 72.449c4.208 8.11 9.802 14.675 16.777 19.697 6.967 5.03 15.151 8.753 24.557 11.184 9.4 2.433 19.126 3.647 29.181 3.647 6.808 0 14.103-0.562 21.882-1.7 7.782-1.132 15.077-3.322 21.885-6.565 6.808-3.238 12.476-7.701 17.021-13.373 4.536-5.671 6.808-12.89 6.808-21.643 0-9.4-3.002-17.02-8.998-22.855-6.002-5.835-13.861-10.7-23.586-14.59-9.726-3.892-20.751-7.296-33.069-10.213a904.63 904.63 0 0 1-37.446-9.726 330.62 330.62 0 0 1-37.929-11.913c-12.327-4.697-23.343-10.776-33.072-18.238-9.726-7.453-17.59-16.777-23.586-27.963-6.002-11.184-8.995-24.718-8.995-40.607 0-17.825 3.805-33.312 11.429-46.442 7.612-13.13 17.581-24.073 29.908-32.825 12.317-8.755 26.259-15.235 41.82-19.452 15.564-4.211 31.125-6.321 46.688-6.321 18.153 0 35.576 2.025 52.277 6.078 16.696 4.058 31.526 10.623 44.498 19.695 12.963 9.081 23.257 20.668 30.881 34.772 7.611 14.1 11.426 31.206 11.426 51.303h-73.919c-0.653-10.371-2.84-18.965-6.564-25.773-3.73-6.809-8.676-12.157-14.831-16.048-6.163-3.891-13.215-6.641-21.155-8.268-7.949-1.619-16.619-2.431-26.017-2.431-6.163 0-12.327 0.654-18.481 1.944-6.163 1.299-11.755 3.571-16.778 6.808-5.031 3.246-9.162 7.296-12.4 12.16-3.245 4.861-4.864 11.025-4.864 18.478 0 6.808 1.293 12.326 3.891 16.534 2.592 4.219 7.697 8.107 15.318 11.673 7.614 3.571 18.155 7.134 31.61 10.699 13.45 3.571 31.04 8.107 52.764 13.617 6.483 1.299 15.479 3.647 26.99 7.052 11.506 3.404 22.932 8.834 34.286 16.291 11.344 7.462 21.154 17.431 29.42 29.907 8.269 12.485 12.403 28.447 12.403 47.902 0 15.886-3.085 30.638-9.239 44.251-6.164 13.617-15.32 25.372-27.477 35.259-12.159 9.893-27.233 17.59-45.228 23.099-17.994 5.51-38.827 8.269-62.489 8.269-19.135 0-37.689-2.357-55.684-7.052-17.991-4.697-33.88-12.074-47.659-22.129-13.783-10.045-24.723-22.855-32.824-38.416-8.108-15.564-11.999-34.042-11.67-55.44h73.918c0 11.672 2.103 21.565 6.322 29.664" fill="#303030"/>
 <path d="m872.25 207.12h-57.49c-2.037 13.57-6.283 24.93-12.723 34.087-6.444 9.16-14.331 16.538-23.657 22.134-9.26 5.554-19.677 9.438-31.271 11.651 3.804 11.169 5.705 23.309 5.705 36.427 0 7.385-0.486 14.34-1.458 20.864h48.648v230.99h72.246v-356.15" fill="#0762c8"/>
 <path d="m630.71 200c-21.369 0-40.281 3.652-56.729 10.94-16.456 7.298-30.107 17.474-40.957 30.526-10.858 13.063-19.001 28.327-24.421 45.791-2.456 7.899-4.252 16.107-5.458 24.593h71.108c1.907-8.332 4.745-16.046 8.633-23.066 4.401-7.966 10.254-14.41 17.552-19.334 7.289-4.912 16.191-7.378 26.71-7.378 15.6 0 28.404 4.834 38.414 14.5 10.001 9.669 15.01 23.152 15.01 40.45 0 10.859-2.467 20.526-7.379 29.002-4.92 8.482-11.025 16.114-18.317 22.893-7.298 6.79-15.349 12.974-24.166 18.572a705.94 705.94 0 0 0-24.93 16.535c-15.266 10.518-29.762 20.86-43.502 31.035-13.738 10.174-25.693 21.288-35.868 33.326-10.179 12.043-18.237 25.695-24.17 40.957-5.935 15.264-8.903 33.247-8.903 53.932h261.52v-62.07h-168.41c8.817-12.212 18.993-22.898 30.527-32.054a472.11 472.11 0 0 1 35.615-25.695 2675.5 2675.5 0 0 0 36.376-24.167c12.038-8.142 22.809-17.212 32.309-27.219 9.494-10.004 17.123-21.449 22.897-34.345 3.397-7.593 5.793-16.073 7.188-25.437h-40.899v-54.441c1.68 0.046 3.355 0.068 5.02 0.068 10.769 0 21.223-0.953 31.359-2.866l0.273-0.052a97.369 97.369 0 0 0-4.213-10.379c-6.615-13.906-15.518-25.605-26.71-35.105-11.196-9.495-24.168-16.793-38.923-21.878-14.757-5.09-30.275-7.634-46.555-7.634" fill="#0762c8"/>
 <path d="m747.11 275-0.273 0.052c-10.136 1.913-20.59 2.866-31.36 2.866-1.665 0-3.34-0.022-5.019-0.068v54.442h40.899c0.972-6.525 1.458-13.479 1.458-20.864 0-13.119-1.901-25.259-5.705-36.428" fill="#001e62"/>
</svg>
