<?xml version="1.0" encoding="UTF-8" standalone="no"?>
<svg
   xmlns:dc="http://purl.org/dc/elements/1.1/"
   xmlns:cc="http://creativecommons.org/ns#"
   xmlns:rdf="http://www.w3.org/1999/02/22-rdf-syntax-ns#"
   xmlns:svg="http://www.w3.org/2000/svg"
   xmlns="http://www.w3.org/2000/svg"
   xmlns:sodipodi="http://sodipodi.sourceforge.net/DTD/sodipodi-0.dtd"
   xmlns:inkscape="http://www.inkscape.org/namespaces/inkscape"
   version="1.1"
   id="svg2"
   xml:space="preserve"
   width="531.5733"
   height="149.60001"
   viewBox="0 0 531.5733 149.60001"
   sodipodi:docname="logouz.eps"><metadata
     id="metadata8"><rdf:RDF><cc:Work
         rdf:about=""><dc:format>image/svg+xml</dc:format><dc:type
           rdf:resource="http://purl.org/dc/dcmitype/StillImage" /></cc:Work></rdf:RDF></metadata><defs
     id="defs6" /><sodipodi:namedview
     pagecolor="#ffffff"
     bordercolor="#666666"
     borderopacity="1"
     objecttolerance="10"
     gridtolerance="10"
     guidetolerance="10"
     inkscape:pageopacity="0"
     inkscape:pageshadow="2"
     inkscape:window-width="640"
     inkscape:window-height="480"
     id="namedview4" /><g
     id="g10"
     inkscape:groupmode="layer"
     inkscape:label="ink_ext_XXXXXX"
     transform="matrix(1.3333333,0,0,-1.3333333,0,149.6)"><g
       id="g12"
       transform="scale(0.1)"><path
         d="M 1149.66,1092.91 V 855.035 c 0,-121.629 56.26,-175.633 152.92,-175.633 100.03,0 159.71,56.27 159.71,174.512 v 238.996 h -86.38 V 848.762 c 0,-68.176 -25.03,-100.028 -70.51,-100.028 -43.75,0 -69.33,33.528 -69.33,100.028 v 244.148"
         style="fill:#175299;fill-opacity:1;fill-rule:evenodd;stroke:none"
         id="path14" /><path
         d="m 1518.63,685.652 h 86.4 v 160.266 c 0,7.992 0.59,15.906 2.87,21.613 6.22,15.93 20.41,32.375 44.32,32.375 31.25,0 43.76,-24.422 43.76,-60.222 V 685.652 h 86.39 v 164.246 c 0,81.872 -42.63,119.954 -99.46,119.954 -46.6,0 -74.48,-26.731 -85.82,-44.914 h -1.72 l -4,38.632 h -75 c 1.14,-24.988 2.26,-53.976 2.26,-88.648"
         style="fill:#175299;fill-opacity:1;fill-rule:evenodd;stroke:none"
         id="path16" /><path
         d="m 1879.68,1092.91 c -27.85,0 -46.06,-18.75 -46.06,-43.19 0,-23.87 17.62,-43.2 44.92,-43.2 28.98,0 46.61,19.33 46.61,43.2 -0.6,24.44 -17.63,43.19 -45.47,43.19"
         style="fill:#175299;fill-opacity:1;fill-rule:evenodd;stroke:none"
         id="path18" /><path
         d="m 1835.89,685.652 h 86.4 v 277.934 h -86.4 V 685.652"
         style="fill:#175299;fill-opacity:1;fill-rule:nonzero;stroke:none"
         id="path20" /><path
         d="m 1946.25,963.586 101.16,-277.934 h 86.39 l 103.46,277.934 h -90.96 l -35.81,-129.004 c -6.27,-23.871 -10.8,-44.902 -15.33,-67.644 h -1.7 c -4.57,22.152 -9.13,43.773 -15.96,67.644 l -37.48,129.004"
         style="fill:#175299;fill-opacity:1;fill-rule:evenodd;stroke:none"
         id="path22" /><path
         d="m 2318.6,856.18 c 2.26,22.718 17.07,56.265 53.42,56.265 39.81,0 48.89,-35.234 48.89,-56.265 z m 179.61,-59.121 c 1.14,6.242 2.83,19.328 2.83,34.113 0,68.734 -34.08,138.68 -123.9,138.68 -96.59,0 -140.4,-77.872 -140.4,-148.379 0,-86.957 54.04,-141.496 148.37,-141.496 37.54,0 72.18,5.656 100.58,17.617 l -11.34,58.527 c -23.31,-7.941 -47.18,-11.949 -76.74,-11.949 -40.36,0 -76.15,17.082 -78.41,52.887"
         style="fill:#175299;fill-opacity:1;fill-rule:evenodd;stroke:none"
         id="path24" /><path
         d="m 2536.97,685.652 h 86.4 v 140.961 c 0,6.821 0.59,13.653 1.69,19.305 5.71,26.723 27.3,43.805 59.12,43.805 9.64,0 16.47,-1.172 23.3,-2.285 v 81.277 c -6.24,1.137 -10.23,1.703 -18.19,1.703 -27.28,0 -60.82,-17.063 -75.01,-57.973 h -2.31 l -3.4,51.125 h -73.89 c 1.73,-23.847 2.29,-50.57 2.29,-91.472"
         style="fill:#175299;fill-opacity:1;fill-rule:evenodd;stroke:none"
         id="path26" /><path
         d="m 2721.22,699.301 c 21.01,-11.403 53.39,-19.899 89.79,-19.899 79.58,0 119.93,38.059 119.93,90.375 -0.57,40.325 -22.13,67.633 -75.02,85.832 -34.1,11.938 -44.91,18.754 -44.91,32.411 0,13.652 11.94,22.164 32.95,22.164 23.34,0 47.76,-9.098 60.27,-15.926 l 14.79,59.668 c -17.09,8.523 -45.47,16.492 -77.88,16.492 -68.77,0 -113.07,-39.219 -113.07,-91.52 -0.62,-32.98 21.57,-64.222 79.54,-83.543 31.79,-10.8 40.33,-17.625 40.33,-32.429 0,-14.203 -10.78,-22.727 -36.93,-22.727 -25.58,0 -58.56,10.84 -74.46,20.473"
         style="fill:#175299;fill-opacity:1;fill-rule:evenodd;stroke:none"
         id="path28" /><path
         d="m 3011.74,1092.91 c -27.85,0 -46.05,-18.75 -46.05,-43.19 0,-23.87 17.64,-43.2 44.93,-43.2 28.99,0 46.6,19.33 46.6,43.2 -0.58,24.44 -17.61,43.19 -45.48,43.19"
         style="fill:#175299;fill-opacity:1;fill-rule:evenodd;stroke:none"
         id="path30" /><path
         d="m 2967.99,685.652 h 86.37 v 277.934 h -86.37 V 685.652"
         style="fill:#175299;fill-opacity:1;fill-rule:nonzero;stroke:none"
         id="path32" /><path
         d="m 3290.89,809.574 c 0,-6.832 -0.58,-13.652 -1.7,-19.902 -5.13,-24.43 -25.58,-41.481 -50.6,-41.481 -35.79,0 -59.11,29.555 -59.11,76.719 0,43.785 19.9,79.008 59.7,79.008 26.69,0 45.47,-19.313 50.58,-42.078 1.13,-5.078 1.13,-11.36 1.13,-15.914 z m 0,280.206 V 939.137 h -1.13 c -12.51,18.789 -38.64,31.297 -73.3,31.297 -66.54,0 -125.07,-54.579 -124.5,-148.356 0,-86.406 52.86,-142.676 118.79,-142.676 35.83,0 69.93,15.907 86.98,46.637 h 1.68 l 3.45,-40.387 h 76.72 c -1.14,18.778 -2.29,51.715 -2.29,82.981 v 321.147"
         style="fill:#175299;fill-opacity:1;fill-rule:evenodd;stroke:none"
         id="path34" /><path
         d="m 3578.59,786.828 c 0,-5.094 -0.55,-10.219 -1.69,-14.777 -5.69,-17.633 -23.88,-31.852 -44.93,-31.852 -19.3,0 -34.07,10.84 -34.07,32.996 0,32.946 35.23,43.754 80.69,43.754 z m 83.54,63.086 c 0,65.957 -28.97,120.52 -121.61,120.52 -50.59,0 -88.65,-14.219 -108.04,-25.02 l 15.96,-55.699 c 18.17,11.371 48.32,21.023 76.73,21.023 42.62,0 50.57,-21.023 50.57,-36.359 v -3.434 c -98.34,0 -163.13,-34.093 -163.13,-106.285 0,-44.332 33.56,-85.238 89.83,-85.238 32.96,0 61.35,11.902 79.57,34.062 h 1.68 l 5.15,-27.832 h 77.85 c -3.44,15.352 -4.56,40.926 -4.56,67.086"
         style="fill:#175299;fill-opacity:1;fill-rule:evenodd;stroke:none"
         id="path36" /><path
         d="m 3898.11,809.574 c 0,-6.832 -0.54,-13.652 -1.68,-19.902 -5.14,-24.43 -25.61,-41.481 -50.62,-41.481 -35.82,0 -59.07,29.555 -59.07,76.719 0,43.785 19.88,79.008 59.68,79.008 26.71,0 45.44,-19.313 50.54,-42.078 1.15,-5.078 1.15,-11.36 1.15,-15.914 z m 0,280.206 V 939.137 h -1.15 c -12.5,18.789 -38.62,31.297 -73.32,31.297 -66.49,0 -125.03,-54.579 -124.46,-148.356 0,-86.406 52.88,-142.676 118.8,-142.676 35.82,0 69.91,15.907 86.95,46.637 h 1.7 l 3.45,-40.387 h 76.73 c -1.17,18.778 -2.28,51.715 -2.28,82.981 v 321.147"
         style="fill:#175299;fill-opacity:1;fill-rule:evenodd;stroke:none"
         id="path38" /><path
         d="m 1614.61,413.289 c 0,42.813 -16.03,87.859 -82.07,87.859 -27.19,0 -53.51,-7.585 -71.36,-18.726 l 8.94,-26.32 c 15.14,10.273 36.1,16.054 56.62,16.054 44.12,0.457 49.11,-32.109 49.11,-49.519 v -4.438 c -83.45,0.41 -129.81,-28.125 -129.81,-80.293 0,-31.179 22.3,-62.039 65.96,-62.039 30.8,0 54,15.176 66.05,32.141 h 1.33 l 3.11,-27.207 h 35.23 c -2.19,14.734 -3.11,33.004 -3.11,51.785 z m -37.93,-59.777 c 0,-3.574 -0.45,-8.043 -1.77,-12.508 -6.21,-18.262 -24.49,-36.145 -53.07,-36.145 -19.6,0 -36.58,11.614 -36.58,37.512 0,41.895 48.6,49.512 91.42,48.582 v -37.441"
         style="fill:#1d191a;fill-opacity:1;fill-rule:evenodd;stroke:none"
         id="path40" /><path
         d="m 1690.35,280.801 h 39.23 v 115.117 c 0,6.227 0.47,12.937 1.37,18.277 5.36,29.446 24.98,49.914 52.63,49.914 5.38,0 9.35,0 13.4,-0.879 v 37.024 c -3.59,0.426 -6.74,0.906 -10.72,0.906 -26.33,0 -50.4,-18.34 -60.2,-47.305 h -1.39 l -1.78,42.801 h -34.34 c 1.39,-20.058 1.8,-41.902 1.8,-67.273 V 280.801"
         style="fill:#1d191a;fill-opacity:1;fill-rule:nonzero;stroke:none"
         id="path42" /><path
         d="m 1998.02,413.289 c 0,42.813 -16.02,87.859 -82.05,87.859 -27.22,0 -53.55,-7.585 -71.36,-18.726 l 8.93,-26.32 c 15.15,10.273 36.12,16.054 56.64,16.054 44.19,0.457 49.08,-32.109 49.08,-49.519 v -4.438 c -83.42,0.41 -129.79,-28.125 -129.79,-80.293 0,-31.179 22.29,-62.039 65.99,-62.039 30.77,0 53.99,15.176 66,32.141 h 1.36 l 3.12,-27.207 h 35.25 c -2.25,14.734 -3.17,33.004 -3.17,51.785 z m -37.92,-59.777 c 0,-3.574 -0.44,-8.043 -1.78,-12.508 -6.23,-18.262 -24.45,-36.145 -53.08,-36.145 -19.61,0 -36.55,11.614 -36.55,37.512 0,41.895 48.6,49.512 91.41,48.582 v -37.441"
         style="fill:#1d191a;fill-opacity:1;fill-rule:evenodd;stroke:none"
         id="path44" /><path
         d="m 2258.46,437.82 c 0,25.86 0.44,43.66 1.73,58.856 h -34.79 l -1.33,-32.567 h -0.85 c -9.82,17.871 -29.9,37.051 -67.36,37.051 -49.98,0 -97.71,-41.055 -97.71,-114.14 0,-59.797 38.34,-105.325 91.93,-105.325 33.39,0 57.03,16.059 68.64,36.106 h 0.96 v -23.645 c 0,-54.836 -29.48,-75.812 -69.6,-75.812 -26.79,0 -49.13,8.066 -63.37,17.422 l -9.81,-30.352 c 17.38,-11.601 45.92,-17.793 71.8,-17.793 27.21,0 57.6,6.66 78.96,25.879 20.49,19.141 30.8,49.027 30.8,98.988 z m -39.29,-65.144 c 0,-6.664 -0.9,-14.27 -3.12,-20.942 -8.03,-24.961 -29.89,-40.175 -54.41,-40.175 -41.92,0 -63.75,35.265 -63.75,77.66 0,49.918 26.73,81.629 64.19,81.629 29.03,0 47.71,-18.77 54.89,-41.953 1.75,-4.93 2.2,-10.696 2.2,-17.391 v -38.828"
         style="fill:#1d191a;fill-opacity:1;fill-rule:evenodd;stroke:none"
         id="path46" /><path
         d="m 2427,501.148 c -59.37,0 -107.11,-42.363 -107.11,-114.128 0,-68.274 45.54,-111.133 103.49,-111.133 51.73,0 107.49,34.793 107.49,114.648 0,65.567 -41.95,110.613 -103.87,110.613 m -0.96,-29.46 c 46.38,0 64.68,-45.938 64.68,-82.481 0,-48.644 -28.08,-83.867 -65.58,-83.867 -38.3,0 -65.11,35.644 -65.11,82.949 0,40.606 20.1,83.399 66.01,83.399"
         style="fill:#1d191a;fill-opacity:1;fill-rule:evenodd;stroke:none"
         id="path48" /><path
         d="m 2565.14,280.801 h 174.85 v 31.211 h -125.78 v 0.914 c 9.82,10.668 18.28,21.867 27.63,33.879 l 83.95,125.351 v 24.5 h -164.14 v -31.218 h 116.84 v -0.833 c -9.85,-11.582 -6.29,-21.882 -16.13,-33.914 l -97.22,-127.16 v -22.73"
         style="fill:#1d191a;fill-opacity:1;fill-rule:nonzero;stroke:none"
         id="path50" /><path
         d="m 2944.61,413.289 c 0,42.813 -16.03,87.859 -82.02,87.859 -27.22,0 -53.59,-7.585 -71.44,-18.726 l 8.94,-26.32 c 15.19,10.273 36.18,16.054 56.69,16.054 44.15,0.457 49.04,-32.109 49.04,-49.519 v -4.438 c -83.43,0.41 -129.75,-28.125 -129.75,-80.293 0,-31.179 22.26,-62.039 66,-62.039 30.71,0 53.95,15.176 65.95,32.141 h 1.37 l 3.13,-27.207 h 35.23 c -2.23,14.734 -3.14,33.004 -3.14,51.785 z m -37.87,-59.777 c 0,-3.574 -0.5,-8.043 -1.82,-12.508 -6.22,-18.262 -24.54,-36.145 -53.06,-36.145 -19.66,0 -36.58,11.614 -36.58,37.512 0,41.895 48.6,49.512 91.46,48.582 v -37.441"
         style="fill:#1d191a;fill-opacity:1;fill-rule:evenodd;stroke:none"
         id="path52" /><path
         d="m 1161.97,280.801 h 245.23 v 32.594 h -193.95 v 1.328 l 192.44,243.031 v 23.66 h -243.77 v -32.527 h 192.86 v -1.332 L 1161.97,303.531"
         style="fill:#1d191a;fill-opacity:1;fill-rule:nonzero;stroke:none"
         id="path54" /><path
         d="m 194.262,1.57813 h 20.965 V 94.0508 h -17.805 l -24.617,-11.3711 3.519,-16.2305 17.645,8.4219 h 0.293"
         style="fill:#3a66aa;fill-opacity:1;fill-rule:evenodd;stroke:none"
         id="path56" /><path
         d="m 341.543,94.0508 h -50.922 l -5.988,-48.3594 c 3.695,0.5586 7.23,0.8203 12.387,0.8203 18.484,0 26.015,-5.8008 26.015,-15.4922 0,-9.789 -9.519,-14.0976 -18.504,-14.0976 -8.41,0 -16.765,2.5898 -20.742,4.5469 L 279.836,5.30078 C 284.926,2.55859 294.281,0 305.535,0 c 24.91,0 39.684,15.1992 39.684,32.4414 0,10.957 -4.262,18.6367 -11.199,23.3399 -6.446,4.6679 -15.54,6.6796 -24.368,6.6796 -2.273,0 -3.968,-0.1328 -5.941,-0.289 l 1.973,14.0976 h 35.859"
         style="fill:#3a66aa;fill-opacity:1;fill-rule:evenodd;stroke:none"
         id="path58" /><path
         d="m 410.266,39.8906 0.125,0.2305 12.25,20.207 c 3.136,5.8321 5.718,11.2422 8.714,17.2305 h 0.356 c -0.258,-5.9883 -0.496,-11.6797 -0.496,-17.2305 V 39.8906 Z M 451.664,1.57813 V 23.6719 h 10.977 V 39.8906 H 451.664 V 94.0508 H 425.078 L 390.195,37.6992 V 23.6719 h 41.02 V 1.57813"
         style="fill:#3a66aa;fill-opacity:1;fill-rule:evenodd;stroke:none"
         id="path60" /><path
         d="M 571.762,1.57813 V 19.3789 h -35.024 v 0.293 l 8.539,7.0898 c 13.567,11.9688 24.618,24.3164 24.618,39.8086 0,16.8906 -11.356,29.0391 -32.418,29.0391 -12.379,0 -23.321,-4.2383 -30.164,-9.4883 l 6.14,-15.3828 c 4.817,3.582 11.742,7.543 19.766,7.543 10.664,0 15.058,-5.9922 15.058,-13.5118 -0.14,-10.8398 -9.957,-21.2109 -30.312,-39.4179 L 506.176,14.6484 V 1.57813"
         style="fill:#3a66aa;fill-opacity:1;fill-rule:evenodd;stroke:none"
         id="path62" /><path
         d="m 448.711,600.84 c 0,7.254 -5.898,13.14 -13.18,13.14 -7.269,0 -13.16,-5.886 -13.16,-13.14 0,-7.309 5.891,-13.195 13.16,-13.195 7.282,0 13.18,5.886 13.18,13.195 M 321.094,587.645 c 7.289,0 13.164,5.886 13.164,13.195 0,7.254 -5.875,13.14 -13.164,13.14 -7.278,0 -13.172,-5.886 -13.172,-13.14 0,-7.309 5.894,-13.195 13.172,-13.195 m 1.304,-251.075 h 115.383 c 6.356,0 12.684,4.258 12.684,12.657 V 510.34 c 0,38.984 -31.449,70.301 -70.387,70.301 -38.965,0 -70.305,-31.317 -70.305,-70.301 V 349.227 c 0,-8.399 6.297,-12.657 12.625,-12.657 m 213.094,666.66 c -13.777,0 -24.871,-11.074 -24.871,-24.867 v -44.386 c 0,-2.954 2.227,-4.457 4.461,-4.457 h 40.82 c 2.239,0 4.473,1.503 4.473,4.457 v 44.386 c 0,13.793 -11.117,24.867 -24.883,24.867 M 522.734,337.613 h 82.223 c 4.512,0 9.027,3.039 9.027,9.016 v 155.879 c 0,27.773 -22.39,50.129 -50.152,50.129 -27.773,0 -50.117,-22.356 -50.117,-50.129 V 346.629 c 0,-5.977 4.504,-9.016 9.019,-9.016 m 89.547,240.84 c 0,7.277 -5.894,13.164 -13.187,13.164 -7.258,0 -13.156,-5.887 -13.156,-13.164 0,-7.293 5.898,-13.183 13.156,-13.183 7.293,0 13.187,5.89 13.187,13.183 m -86.25,-13.183 c 7.274,0 13.168,5.89 13.168,13.183 0,7.277 -5.894,13.164 -13.168,13.164 -7.269,0 -13.176,-5.887 -13.176,-13.164 0,-7.293 5.907,-13.183 13.176,-13.183 M 99.5352,302.84 H 665.898 v 24.344 H 99.5352 Z M 634.855,929.52 c 2.247,0 4.493,1.503 4.493,4.457 v 44.386 c 0,13.793 -11.133,24.867 -24.907,24.867 -13.789,0 -24.867,-11.074 -24.867,-24.867 v -44.386 c 0,-2.954 2.223,-4.457 4.457,-4.457 z M 50.3516,251.332 H 715.094 v 37.102 H 50.3516 Z m 98.7304,94.231 c 0,-5.958 4.504,-8.993 9.02,-8.993 h 82.218 c 4.516,0 9.028,3.035 9.028,8.993 v 151.828 c 0,27.761 -22.395,50.097 -50.149,50.097 -27.773,0 -50.117,-22.336 -50.117,-50.097 z m 8.246,657.667 c -13.777,0 -24.867,-11.074 -24.867,-24.867 v -44.386 c 0,-2.954 2.234,-4.457 4.473,-4.457 h 40.804 c 2.266,0 4.504,1.503 4.504,4.457 v 44.386 c 0,13.793 -11.121,24.867 -24.914,24.867 m 18.469,-424.777 c 0,7.277 -5.895,13.164 -13.176,13.164 -7.262,0 -13.156,-5.887 -13.156,-13.164 0,-7.293 5.894,-13.183 13.156,-13.183 7.281,0 13.176,5.89 13.176,13.183 m 56.344,424.777 c -13.782,0 -24.883,-11.074 -24.883,-24.867 v -44.386 c 0,-2.954 2.234,-4.457 4.472,-4.457 h 40.821 c 2.234,0 4.469,1.503 4.469,4.457 v 44.386 c 0,13.793 -11.114,24.867 -24.879,24.867 M 149.082,806.301 v -89.383 c 0,-5.973 4.504,-9.016 9.02,-9.016 h 82.218 c 4.516,0 9.028,3.043 9.028,9.016 v 89.383 c 0,27.773 -22.395,50.113 -50.149,50.113 -27.773,0 -50.117,-22.34 -50.117,-50.113 m 99.789,-227.848 c 0,7.277 -5.891,13.164 -13.168,13.164 -7.265,0 -13.176,-5.887 -13.176,-13.164 0,-7.293 5.911,-13.183 13.176,-13.183 7.277,0 13.168,5.89 13.168,13.183 M 0.015625,189.184 H 765.422 v 46.367 H 0.015625 Z M 368.531,679.977 h 26.828 c 1.465,0 2.922,-0.997 2.922,-2.95 v -21.035 c 0,-9.062 -7.281,-16.355 -16.332,-16.355 -9.043,0 -16.359,7.293 -16.359,16.355 v 21.035 c 0,1.953 1.457,2.95 2.941,2.95 m 144.578,-49.84 -130.906,70.73 -133,-69.668 z M 303.102,687.41 c 0,-3.242 2.621,-5.867 5.851,-5.867 3.238,0 5.86,2.625 5.86,5.867 0,3.211 -2.622,5.852 -5.86,5.852 -3.23,0 -5.851,-2.641 -5.851,-5.852 m 100.429,242.11 c 2.246,0 4.481,1.503 4.481,4.457 v 44.386 c 0,13.793 -11.102,24.867 -24.891,24.867 -13.781,0 -24.867,-11.074 -24.867,-24.867 v -44.386 c 0,-2.954 2.226,-4.457 4.465,-4.457 z M 514.145,806.301 v -89.383 c 0,-5.973 4.484,-9.016 8.996,-9.016 h 82.218 c 4.536,0 9.043,3.043 9.043,9.016 v 89.383 c 0,27.773 -22.422,50.113 -50.164,50.113 -27.754,0 -50.093,-22.34 -50.093,-50.113 M 324.199,703.363 c -4.922,0 -8.918,-4.015 -8.918,-8.941 0,-4.934 3.996,-8.926 8.918,-8.926 4.926,0 8.922,3.992 8.922,8.926 0,4.926 -3.996,8.941 -8.922,8.941 m 333.098,399.997 34.781,18.62 H 71.9922 l 22.0273,-18.62 z m 58.855,-51.93 41.551,41.53 H 16.7344 l 26.3203,-41.53 z M 333.219,978.363 c 0,13.793 -11.125,24.867 -24.903,24.867 -13.781,0 -24.875,-11.074 -24.875,-24.867 v -44.386 c 0,-2.954 2.239,-4.457 4.473,-4.457 h 40.82 c 2.239,0 4.485,1.503 4.485,4.457 z m 0.101,-172.062 v -86.578 l 48.883,23.07 51.367,-25.066 v 88.574 c 0,27.773 -22.398,50.113 -50.148,50.113 -27.774,0 -50.102,-22.34 -50.102,-50.113 m 26.684,-102.328 c 4.937,0 8.922,3.996 8.922,8.929 0,4.926 -3.985,8.922 -8.922,8.922 -4.938,0 -8.926,-3.996 -8.926,-8.922 0,-4.933 3.988,-8.929 8.926,-8.929 m -17.633,7.73 c -4.922,0 -8.926,-4.015 -8.926,-8.941 0,-4.918 4.004,-8.907 8.926,-8.907 4.942,0 8.938,3.989 8.938,8.907 0,4.926 -3.996,8.941 -8.938,8.941 m 27.137,8.133 c 0,-6.828 5.547,-12.387 12.379,-12.387 6.84,0 12.371,5.559 12.371,12.387 0,6.848 -5.531,12.394 -12.371,12.394 -6.832,0 -12.379,-5.546 -12.379,-12.394 M 485.59,933.977 v 44.386 c 0,13.793 -11.125,24.867 -24.899,24.867 -13.789,0 -24.867,-11.074 -24.867,-24.867 v -44.386 c 0,-2.954 2.223,-4.457 4.473,-4.457 h 40.808 c 2.25,0 4.485,1.503 4.485,4.457 M 449.809,687.41 c 0,-3.242 2.629,-5.867 5.871,-5.867 3.226,0 5.836,2.625 5.836,5.867 0,3.211 -2.61,5.852 -5.836,5.852 -3.242,0 -5.871,-2.641 -5.871,-5.852 m -46.098,34.414 c -4.941,0 -8.938,-3.996 -8.938,-8.922 0,-4.933 3.997,-8.929 8.938,-8.929 4.91,0 8.926,3.996 8.926,8.929 0,4.926 -4.016,8.922 -8.926,8.922 m 26.523,-27.402 c 0,-4.934 4.012,-8.926 8.926,-8.926 4.938,0 8.93,3.992 8.93,8.926 0,4.926 -3.992,8.941 -8.93,8.941 -4.914,0 -8.926,-4.015 -8.926,-8.941 m -9.105,-0.567 c 4.922,0 8.926,3.989 8.926,8.907 0,4.926 -4.004,8.941 -8.926,8.941 -4.938,0 -8.922,-4.015 -8.922,-8.941 0,-4.918 3.984,-8.907 8.922,-8.907"
         style="fill:#175299;fill-opacity:1;fill-rule:nonzero;stroke:none"
         id="path64" /></g></g></svg>
